<?xml version="1.0" standalone="no"?><!DOCTYPE svg PUBLIC "-//W3C//DTD SVG 1.1//EN" "http://www.w3.org/Graphics/SVG/1.1/DTD/svg11.dtd"><svg t="1695364068157" class="icon" viewBox="0 0 1024 1024" version="1.1" xmlns="http://www.w3.org/2000/svg" p-id="5066" xmlns:xlink="http://www.w3.org/1999/xlink" width="200" height="200"><path d="M484.693 484.693V273.067c0-13.654 13.654-27.307 27.307-27.307s27.307 6.827 27.307 27.307v211.626h211.626c13.654 0 27.307 13.654 27.307 27.307s-6.827 27.307-27.307 27.307H539.307v211.626c0 13.654-13.654 27.307-27.307 27.307s-27.307-6.827-27.307-27.307V539.307H273.067c-13.654 0-27.307-13.654-27.307-27.307s6.827-27.307 27.307-27.307h211.626z" fill="#6590DC" p-id="5067"></path><path d="M512 955.733c245.76 0 443.733-197.973 443.733-443.733S757.76 68.267 512 68.267 68.267 266.24 68.267 512 266.24 955.733 512 955.733z m0 68.267C232.107 1024 0 791.893 0 512S232.107 0 512 0s512 232.107 512 512-232.107 512-512 512z" fill="#6590DC" p-id="5068"></path></svg>