<?xml version="1.0" standalone="no"?><!DOCTYPE svg PUBLIC "-//W3C//DTD SVG 1.1//EN" "http://www.w3.org/Graphics/SVG/1.1/DTD/svg11.dtd"><svg t="1626943254060" class="icon" viewBox="0 0 1024 1024" version="1.1" xmlns="http://www.w3.org/2000/svg" p-id="19880" xmlns:xlink="http://www.w3.org/1999/xlink" width="400" height="400"><defs><style type="text/css">@font-face { font-family: feedback-iconfont; src: url("//at.alicdn.com/t/font_1031158_1uhr8ri0pk5.eot?#iefix") format("embedded-opentype"), url("//at.alicdn.com/t/font_1031158_1uhr8ri0pk5.woff2") format("woff2"), url("//at.alicdn.com/t/font_1031158_1uhr8ri0pk5.woff") format("woff"), url("//at.alicdn.com/t/font_1031158_1uhr8ri0pk5.ttf") format("truetype"), url("//at.alicdn.com/t/font_1031158_1uhr8ri0pk5.svg#iconfont") format("svg"); }
</style></defs><path d="M949.13015873 485.99365079l-0.1015873-0.1015873-0.1015873-0.1015873c-36.97777778-77.91746032-81.26984127-140.9015873-132.77460318-188.95238095l-144.25396825 144.25396825c9.44761905 21.73968254 14.62857143 45.81587302 14.62857143 71.00952381 0 98.74285714-80.05079365 178.79365079-178.7936508 178.7936508-25.19365079 0-49.26984127-5.18095238-71.00952381-14.62857143l-123.93650793 123.93650793C372.41904762 828.74920635 438.65396825 843.17460317 512 843.17460317c195.25079365 0 340.72380952-102.0952381 437.02857143-305.06666666 7.82222222-16.45714286 7.82222222-35.55555556 0.1015873-52.11428572zM884.11428571 148.52063492l-43.07301587-43.07301587c-3.14920635-3.14920635-8.33015873-3.14920635-11.47936508 0L710.90793651 224C651.58095238 195.25079365 585.34603175 180.82539683 512 180.82539683c-195.25079365 0-340.72380952 102.0952381-437.02857143 305.06666666v0.1015873c-7.82222222 16.45714286-7.82222222 35.75873016 0 52.31746032 36.97777778 77.91746032 81.26984127 140.9015873 132.77460318 189.05396826L105.44761905 829.46031746c-3.14920635 3.14920635-3.14920635 8.33015873 0 11.47936508l43.07301587 43.07301587c3.14920635 3.14920635 8.33015873 3.14920635 11.47936508 0l724.11428571-724.11428571c3.14920635-3.04761905 3.14920635-8.22857143 0-11.37777778zM346.31111111 588.5968254C335.33968254 565.33333333 329.14285714 539.42857143 329.14285714 512c0-98.74285714 80.05079365-178.79365079 178.7936508-178.79365079 27.42857143 0 53.33333333 6.1968254 76.59682539 17.16825396L346.31111111 588.5968254z" p-id="19881"></path></svg>