<?xml version="1.0" standalone="no"?><!DOCTYPE svg PUBLIC "-//W3C//DTD SVG 1.1//EN" "http://www.w3.org/Graphics/SVG/1.1/DTD/svg11.dtd"><svg t="1626943297739" class="icon" viewBox="0 0 1024 1024" version="1.1" xmlns="http://www.w3.org/2000/svg" p-id="19881" xmlns:xlink="http://www.w3.org/1999/xlink" width="400" height="400"><defs><style type="text/css">@font-face { font-family: feedback-iconfont; src: url("//at.alicdn.com/t/font_1031158_1uhr8ri0pk5.eot?#iefix") format("embedded-opentype"), url("//at.alicdn.com/t/font_1031158_1uhr8ri0pk5.woff2") format("woff2"), url("//at.alicdn.com/t/font_1031158_1uhr8ri0pk5.woff") format("woff"), url("//at.alicdn.com/t/font_1031158_1uhr8ri0pk5.ttf") format("truetype"), url("//at.alicdn.com/t/font_1031158_1uhr8ri0pk5.svg#iconfont") format("svg"); }
</style></defs><path d="M507.93650794 512m-113.77777778 0a113.77777778 113.77777778 0 1 0 227.55555555 0 113.77777778 113.77777778 0 1 0-227.55555555 0Z" p-id="19882"></path><path d="M949.02857143 485.79047619C852.72380952 282.92063492 707.14920635 180.82539683 512 180.82539683c-195.25079365 0-340.72380952 102.0952381-437.02857143 305.06666666-7.82222222 16.45714286-7.82222222 35.75873016 0 52.31746032C171.27619048 741.07936508 316.85079365 843.17460317 512 843.17460317c195.25079365 0 340.72380952-102.0952381 437.02857143-305.06666666 7.82222222-16.45714286 7.82222222-35.55555556 0-52.31746032zM507.93650794 690.79365079c-98.74285714 0-178.79365079-80.05079365-178.7936508-178.79365079s80.05079365-178.79365079 178.7936508-178.79365079 178.79365079 80.05079365 178.79365079 178.79365079-80.05079365 178.79365079-178.79365079 178.79365079z" p-id="19883"></path></svg>