<?xml version="1.0" standalone="no"?><!DOCTYPE svg PUBLIC "-//W3C//DTD SVG 1.1//EN" "http://www.w3.org/Graphics/SVG/1.1/DTD/svg11.dtd"><svg t="1639378813914" class="icon" viewBox="0 0 1101 1024" version="1.1" xmlns="http://www.w3.org/2000/svg" p-id="62199" xmlns:xlink="http://www.w3.org/1999/xlink" width="215.0390625" height="200"><defs><style type="text/css"></style></defs><path d="M451.29145719 44.85554844l-402.92622469 402.92622468a55.82641031 55.82641031 0 0 0 0 78.97830094l402.92622469 402.92622469a43.86360844 43.86360844 0 0 0 31.00805906 12.85554844h4.76131406a43.86360844 43.86360844 0 0 0 39.10229438-43.6255425v-235.6255425l13.27216406 0.53564812a581.47551187 581.47551187 0 0 1 448.33725937 244.3744575l59.04029719 84.09671438 13.15313156-101.95164282a534.57656531 534.57656531 0 0 0 4.28518219-67.49163093v-12.20086782a546.47985094 546.47985094 0 0 0-529.33911937-526.18474875h-8.57036625v-208.30750125A43.86360844 43.86360844 0 0 0 451.41048969 45.15313063z m-4.8803475 117.60446437v203.248605l41.66150062-1.78549312a526.72039688 526.72039688 0 0 1 21.72349594-0.47613188h11.90328656a469.22752594 469.22752594 0 0 1 458.93118375 401.259765l1.42839469 12.85554844-3.09485438-3.21388688a665.6317425 665.6317425 0 0 0-469.28704312-191.40483562q-12.49845 0-24.8778675 0.41661469l-38.44761281 1.42839468v227.05517625L121.74898906 487.24116594z" fill="#3C8FFF" p-id="62200"></path></svg>