<?xml version="1.0" standalone="no"?><!DOCTYPE svg PUBLIC "-//W3C//DTD SVG 1.1//EN" "http://www.w3.org/Graphics/SVG/1.1/DTD/svg11.dtd"><svg t="1639391270716" class="icon" viewBox="0 0 1024 1024" version="1.1" xmlns="http://www.w3.org/2000/svg" p-id="31384" xmlns:xlink="http://www.w3.org/1999/xlink" width="200" height="200"><defs><style type="text/css"></style></defs><path d="M895.474909 127.041728H125.379339c-49.356985 0-89.513284 40.156299-89.513284 89.513284v453.950636c0 49.356985 40.156299 89.513284 89.513284 89.513284h253.290624a88.921857 88.921857 0 0 0-12.042733 44.756642v5.760819c0 16.297811 4.398939 31.579008 12.042733 44.756642H274.55962a22.378321 22.378321 0 1 0 0 44.756642h471.738204a22.378321 22.378321 0 1 0 0-44.756642h-104.110343a88.921857 88.921857 0 0 0 12.042733-44.756642v-5.760819c0-16.297811-4.398939-31.579008-12.042733-44.756642h253.290625c49.356985 0 89.513284-40.156299 89.513284-89.513284V216.555012c-0.003197-49.360182-40.156299-89.513284-89.516481-89.513284z m-770.09557 44.756642h770.098767c24.680091 0 44.756642 20.076551 44.756642 44.756642v380.715982H80.622697V216.555012c0-24.680091 20.076551-44.756642 44.756642-44.756642z m484.094233 632.977204v5.760819c0 24.680091-20.076551 44.756642-44.756642 44.756642h-108.576416c-24.680091 0-44.756642-20.076551-44.756642-44.756642v-5.760819c0-24.680091 20.076551-44.756642 44.756642-44.756642h108.576416c24.676894 0 44.756642 20.076551 44.756642 44.756642z m286.001337-89.513284H125.379339c-24.680091 0-44.756642-20.076551-44.756642-44.756642v-28.478012h859.612051v28.478012c-0.003197 24.680091-20.079748 44.756642-44.759839 44.756642z" fill="#009FE8" p-id="31385"></path></svg>