<?xml version="1.0" standalone="no"?>
<svg class="icon" viewBox="0 0 1024 4096" version="1.1" xmlns="http://www.w3.org/2000/svg" xmlns:xlink="http://www.w3.org/1999/xlink" width="200" height="800">
    <!-- 外层翻转 -->
    <g transform="scale(-1 1) translate(-1024 0)">
        <!-- 原始变换 -->
        <g transform="rotate(-90) translate(-4096 0)">
            <path
                    d="M819.2 0h2457.6a307.2 307.2 0 0 1 307.2 307.2v97.5872c0 245.248 147.2 466.432 373.3504 561.152L4096 1024H0l138.6496-58.0608A608.3584 608.3584 0 0 0 512 404.7872V307.2a307.2 307.2 0 0 1 307.2-307.2z m1536 348.3136L2333.952 307.2 2048"
                    fill="#0DA1C5"
            />
        </g>
    </g>

    <!-- 新增的双折叠箭头（位于中心） -->
    <g transform="translate(25 1545) scale(1)">
        <path d="M748.79999999 512l-268.79999999 268.8c-6.4 6.4-6.4 25.6 0 32 6.4 6.4 25.6 6.4 32 0l275.2-288c12.8-6.4 12.8-25.6 6.4-32L512 211.2c-6.4-6.4-12.8-6.4-19.2-6.4-6.4 0-12.8 6.4-12.8 6.4-6.4 6.4-6.4 25.6 0 32L748.79999999 512z"  p-id="28689"></path>
        <path d="M230.4 243.2l262.4 262.4-262.4 268.8c-6.4 6.4-6.4 25.6 0 32 6.4 6.4 25.6 6.4 32 1e-8L544 524.8c12.8-6.4 12.8-25.6 0-32l-281.6-281.60000001c-6.4-6.4-12.8-6.4-19.2-6.39999999-6.4 0-19.2 6.4-12.8 6.4-6.4 6.4-6.4 25.6 0 32z"  p-id="28690"></path>
    </g>
</svg>
